<svg width="40" height="40" viewBox="0 0 1024 1024" xmlns="http://www.w3.org/2000/svg">
    <path d="M512.741918 482.55354c154.185859 0 308.371718-0.01535 462.562694 0.010233 34.977585 0.005117 37.505222 3.387238 37.172638 37.832689-1.263819 131.432009-50.905791 243.968141-141.588607 335.950592-116.619237 118.29239-260.060081 168.348813-426.229191 147.222066-108.688393-13.820137-202.824964-60.386988-280.127677-136.6766C66.327447 769.992945 14.244821 651.316804 11.512517 512.133034c-0.480967-24.519103 12.111168-29.87626 33.560266-29.81486C200.962494 482.758207 356.852206 482.55354 512.741918 482.55354zM510.424064 687.936841c-126.146485 0-252.29297-0.07675-378.439454 0.0614-26.233188 0.0307-32.603448 9.880298-19.934563 32.654615 36.041853 64.761745 84.04649 120.119043 145.820097 160.341218 134.962514 87.873762 279.058292 106.227272 429.406646 42.887963 95.057573-40.048209 170.165233-104.190836 219.402988-196.178404 16.352891-30.551661 10.734782-39.736092-22.927817-39.751442C759.304212 687.901024 634.86158 687.931724 510.424064 687.936841zM512.1535 529.038525c-138.943287 0-277.881457-0.025583-416.824744 0.01535-36.799121 0.010233-38.016889 0.429801-32.188997 37.489872 4.195673 26.673222 12.428402 52.686394 17.596242 79.241933 3.893789 20.006196 13.533603 26.760206 34.726868 26.616939 149.161285-1.018218 298.33792-0.537251 447.504322-0.537251 115.074002 0 230.148004 0.01535 345.222006-0.0307 13.502903-0.005117 27.885874 2.30762 32.286214-16.598491 6.902393-29.671593 16.194274-58.872453 21.561665-88.794763 5.551591-30.966112-1.366152-37.387538-33.063948-37.397771C790.040074 529.012942 651.096787 529.038525 512.1535 529.038525z"/>
    <path d="M634.124779 127.47682c-7.229861 12.894019-15.790056 25.240554-21.413281 38.79974-11.952551 28.811992-2.52252 53.730195 15.697956 77.287363 37.136821 48.03022 40.406376 86.098276 11.717184 130.04539-3.566322 5.464608-10.422665 8.780213-15.759356 13.088453-1.744786-1.586169-3.494688-3.172338-5.239474-4.758507 2.297387-4.758507 3.996123-9.946815 6.994494-14.214121 23.787418-33.872383 21.781682-75.849578-5.413441-107.542258-32.455064-37.822455-37.965722-80.398301-14.193654-119.238975 4.896657-7.997362 13.64617-13.635937 20.625314-20.364363C629.458372 122.87693 631.791575 125.179433 634.124779 127.47682z"/>
    <path d="M404.370759 125.506901c-2.026203 5.280408-3.330955 10.995733-6.196292 15.779823-22.216599 37.111238-19.310328 72.93819 8.652296 107.173857 27.205357 33.314665 32.618798 70.594753 16.322191 109.906161-4.635707 11.179933-15.396073 19.816879-23.342268 29.620427-2.379253-2.005736-4.763624-4.011473-7.142877-6.022325 3.264438-6.211642 6.380493-12.515385 9.824014-18.629811 22.866417-40.626393 19.745246-71.454355-10.939449-107.15339C355.01532 213.67743 357.952291 154.410993 404.370759 125.506901z"/>
    <path d="M509.421196 15.718423c5.838125 3.868206 13.58477 6.452126 17.212492 11.814401 26.96999 39.904942 23.695318 86.61506-7.772228 124.197032-29.298076 34.987818-31.370329 68.41505-7.685245 107.086874 3.044421 4.973407 1.995503 12.453985 2.844871 18.778194-5.055274-3.300255-11.512517-5.536241-14.950922-10.069615-26.146205-34.471034-25.844321-81.534203 0.0614-115.718703 39.904942-52.64546 41.219927-76.463579 7.07636-127.870804C507.27731 21.193264 508.351811 18.455844 509.421196 15.718423z"/>

    <defs>
        <linearGradient id="paint0_linear" x1="2.94192" y1="4.89955" x2="37.7772" y2="39.7345" gradientUnits="userSpaceOnUse">
            <stop offset="0.15937" stop-color="#3BEA62"/>
            <stop offset="0.5404" stop-color="#3C99CC"/>
            <stop offset="0.93739" stop-color="#6B57FF"/>
        </linearGradient>
    </defs>
</svg>
