<svg xmlns="http://www.w3.org/2000/svg" width="16px" height="16px" viewBox="0 0 2048 2048">
    <rect fill-opacity="0.6" x="0" y="0" width="2048" height="2048" rx="256" ry="256" fill="#40b6e0"></rect>
    <g transform="scale(0.25)"><path fill-opacity="0.65" transform="translate(412.75, 2580) rotate(180) scale(-1, 1)" fill="#231f20" d="M1012 1442v-205q-92 59 -184.5 89t-186.5 30q-143 0 -226 -66.5t-83 -179.5q0 -99 54.5 -151t203.5 -87l106 -24q210 -49 306 -154t96 -286q0 -213 -132 -325t-384 -112q-105 0 -211 22.5t-213 67.5v215q115 -73 217.5 -107t206.5 -34q153 0 238 68.5t85 191.5 q0 112 -58.5 171t-203.5 91l-108 25q-208 47 -302 142t-94 255q0 200 134.5 320.5t357.5 120.5q86 0 181 -19.5t200 -58.5z"></path><path fill-opacity="0.65" transform="translate(1645.75, 2580) rotate(180) scale(-1, 1)" fill="#231f20" d="M616 991q-140 0 -212 -109t-72 -323q0 -213 72 -322.5t212 -109.5q141 0 213 109.5t72 322.5q0 214 -72 323t-213 109zM616 1147q233 0 356.5 -151t123.5 -437q0 -287 -123 -437.5t-357 -150.5q-233 0 -356 150.5t-123 437.5q0 286 123 437t356 151z"></path><path fill-opacity="0.65" transform="translate(2878.75, 2580) rotate(180) scale(-1, 1)" fill="#231f20" d="M195 424v694h184v-694q0 -151 53.5 -222t165.5 -71q130 0 199 91.5t69 262.5v633h185v-1118h-185v168q-49 -97 -133.5 -147t-197.5 -50q-172 0 -256 112.5t-84 340.5z"></path><path fill-opacity="0.65" transform="translate(4111.75, 2580) rotate(180) scale(-1, 1)" fill="#231f20" d="M375 141v-567h-185v1546h185v-143q46 83 122.5 126.5t176.5 43.5q203 0 318.5 -157t115.5 -435q0 -273 -116 -428.5t-318 -155.5q-102 0 -178.5 43.5t-120.5 126.5zM915 559q0 214 -67.5 323t-200.5 109q-134 0 -203 -109.5t-69 -322.5q0 -212 69 -322t203 -110 q133 0 200.5 109t67.5 323z"></path></g>
</svg>
